<svg xmlns="http://www.w3.org/2000/svg" version="1.1" xmlns:xlink="http://www.w3.org/1999/xlink" width="512" height="512" x="0" y="0" viewBox="0 0 336.002 336.002" style="enable-background:new 0 0 512 512" xml:space="preserve" class=""><g><path d="M274.021 0H84.901c-23.365.043-42.326 18.915-42.48 42.28v251.44c.154 23.365 19.115 42.237 42.48 42.28h189.24a19.481 19.481 0 0 0 13.92-5.56 19.476 19.476 0 0 0 5.52-13.6V19.56C293.559 8.766 284.815.022 274.021 0zm-83.92 16h47v75.04l-16.68-26.6a8 8 0 0 0-13.72 0l-16.6 26.48V16zM58.621 42.28c.066-14.487 11.793-26.214 26.28-26.28h89.2v81.6a14.44 14.44 0 0 0 9.96 14.4c7.04 2.12 13.36-2.44 17.12-8.44l12.44-20 12.44 20c3.72 5.92 10.04 10.48 17.28 8.44a14.439 14.439 0 0 0 9.96-14.32V16.2h20.84a3.4 3.4 0 0 1 3.36 3.36v231.995a19.498 19.498 0 0 0-3.36-.275H84.901a42.244 42.244 0 0 0-26.28 9.16V42.28zm218.88 243.52-184.44.2a8 8 0 0 0 0 16l184.44-.2v14.88a3.4 3.4 0 0 1-.96 2.4 3.404 3.404 0 0 1-2.4.96H84.901c-14.525 0-26.3-11.775-26.3-26.3s11.775-26.3 26.3-26.3h189.24a3.4 3.4 0 0 1 3.36 3.36v15z" fill="#5f2ded" opacity="1" data-original="#000000" class=""></path></g></svg>