<svg xmlns="http://www.w3.org/2000/svg" version="1.1" xmlns:xlink="http://www.w3.org/1999/xlink" width="512" height="512" x="0" y="0" viewBox="0 0 128 128" style="enable-background:new 0 0 512 512" xml:space="preserve" class=""><g><path d="M115.46 2H12.54A10.667 10.667 0 0 0 1.89 12.66v102.68A10.667 10.667 0 0 0 12.54 126h102.92a10.667 10.667 0 0 0 10.65-10.66V12.66A10.667 10.667 0 0 0 115.46 2zM22.51 27.04a5.544 5.544 0 0 1 5.54-5.53h8.58a5.535 5.535 0 0 1 5.53 5.53v8.59a5.535 5.535 0 0 1-5.53 5.53h-8.58a5.544 5.544 0 0 1-5.54-5.53zm21.86 77.74a1.707 1.707 0 0 1-1.7 1.71h-20.6a1.707 1.707 0 0 1-1.7-1.71V44.61a1.707 1.707 0 0 1 1.7-1.71h20.6a1.707 1.707 0 0 1 1.7 1.71zm63.26 0a1.707 1.707 0 0 1-1.7 1.71H89.29a1.707 1.707 0 0 1-1.7-1.71V72.03c0-2.9-.32-6.99-3.1-9.03-3.62-2.67-8.34-1.4-11.13 1.22-1.88 1.75-2.79 4.44-2.79 8.22v32.34a1.716 1.716 0 0 1-1.71 1.71H52.23a1.716 1.716 0 0 1-1.71-1.71V44.61a1.716 1.716 0 0 1 1.71-1.71h16.63a1.716 1.716 0 0 1 1.71 1.71v1.26c.13-.08.26-.17.39-.25a23.394 23.394 0 0 1 12.43-3.54c7.14 0 13.03 2.36 17.53 7.02 5.55 5.75 6.71 13.75 6.71 19.44z" fill="#0c0e2b" opacity="1" data-original="#000000" class=""></path></g></svg>