<svg xmlns="http://www.w3.org/2000/svg" version="1.1" xmlns:xlink="http://www.w3.org/1999/xlink" width="512" height="512" x="0" y="0" viewBox="0 0 176 176" style="enable-background:new 0 0 512 512" xml:space="preserve" class=""><g><g data-name="Layer 2"><rect width="176" height="176" fill="#0c0e2b" rx="24" opacity="1" data-original="#00a9f0" class=""></rect><path fill="#ffffff" d="M138.57 96.39a14.15 14.15 0 0 1-2.57-8.34 48 48 0 0 0-64.51-45.14 14.19 14.19 0 0 1-8.69.41 23.45 23.45 0 0 0-25.37 36.29A14.15 14.15 0 0 1 40 88a48 48 0 0 0 64.52 45.09 14.26 14.26 0 0 1 8.69-.41A23.42 23.42 0 0 0 143 111.36a23.4 23.4 0 0 0-4.43-14.97zM88 79l1.76.43c9.68 2.3 24.31 5.78 24.31 21.9 0 7.94-3.91 14-11 17-4.83 2.08-10.28 2.45-15.06 2.47h-.68c-15.18 0-24.77-11.81-25.17-12.31a7.22 7.22 0 1 1 11.29-9s5.76 6.61 13.88 6.86h.68c9.2.16 11.34-2.68 11.63-5.1.33-2.88-2.08-5-11.63-7.45-.51-.14-1-.27-1.58-.4-9.22-2.14-23.14-5.4-23.14-20.29C63.29 68.57 65.1 54 88 53.42h1.36c15.27 0 24.28 12 24.66 12.54a7.22 7.22 0 0 1-11.6 8.6c-.17-.22-5.34-6-13.06-6.69-.46 0-.91-.07-1.36-.08-5.35-.15-10.27 1.87-10.27 4.74 0 3.09 1.47 4.26 10.27 6.47z" opacity="1" data-original="#ffffff" class=""></path></g></g></svg>