<svg xmlns="http://www.w3.org/2000/svg" version="1.1" xmlns:xlink="http://www.w3.org/1999/xlink" width="512" height="512" x="0" y="0" viewBox="0 0 512 512" style="enable-background:new 0 0 512 512" xml:space="preserve" class=""><g><path d="M467 0H45C20.187 0 0 20.188 0 45v360c0 24.813 20.188 45 45 45h422c24.813 0 45-20.188 45-45V45c0-24.813-20.188-45-45-45zM241 390v30h-90v-30zm30 0h90v30h-90zM30 360V90h452v270zM271 60V30h90v30zm-30 0h-90V30h90zm241-15v15h-91V30h76c8.27 0 15 6.73 15 15zM45 30h76v30H30V45c0-8.27 6.73-15 15-15zM30 405v-15h91v30H45c-8.27 0-15-6.73-15-15zm437 15h-76v-30h91v15c0 8.27-6.73 15-15 15zm0 0" fill="#5b2fdc" opacity="1" data-original="#000000" class=""></path><path d="m325 213-120-90c-9.898-7.422-24-.297-24 12v180c0 5.684 3.21 10.875 8.293 13.418A15.003 15.003 0 0 0 205 327l120-90c3.777-2.832 6-7.277 6-12s-2.223-9.168-6-12zm-114 72V165l80 60zm0 0" fill="#5b2fdc" opacity="1" data-original="#000000" class=""></path></g></svg>